<svg width="116" height="62" viewBox="0 0 116 62" fill="none" xmlns="http://www.w3.org/2000/svg">
<path d="M8.30445 23.9691C8.30445 24.4102 8.14955 24.7726 7.83975 25.0561C7.52985 25.3397 7.12295 25.4815 6.61875 25.4815H4.38965V20.2827H6.20915C6.67655 20.2827 7.05335 20.4127 7.33955 20.6727C7.62575 20.9326 7.76885 21.2647 7.76885 21.6691C7.76885 22.0734 7.62445 22.399 7.33555 22.6458C7.64015 22.7456 7.87775 22.911 8.04845 23.1421C8.21915 23.3731 8.30445 23.6488 8.30445 23.9691ZM6.13045 21.0153H5.20885V22.4174H6.13045C6.38245 22.4174 6.57945 22.3544 6.72115 22.2283C6.86295 22.1023 6.93385 21.929 6.93385 21.7085C6.93385 21.4932 6.86425 21.3238 6.72515 21.2004C6.58595 21.077 6.38775 21.0153 6.13045 21.0153ZM7.46165 23.9455C7.46165 23.6934 7.38025 23.4952 7.21745 23.3508C7.05465 23.2064 6.83145 23.1342 6.54795 23.1342H5.20885V24.7489H6.54795C6.83675 24.7489 7.06125 24.6767 7.22135 24.5323C7.38155 24.3879 7.46165 24.1923 7.46165 23.9455ZM8.94245 22.8821C8.93195 22.1417 9.19715 21.5063 9.73805 20.9759C10.2789 20.4455 10.9221 20.1856 11.6678 20.1961C12.4082 20.1856 13.0528 20.4455 13.6017 20.9759C14.1504 21.5063 14.4169 22.1417 14.4011 22.8821C14.4169 23.6226 14.1504 24.258 13.6017 24.7883C13.0528 25.3187 12.4082 25.5786 11.6678 25.5681C10.9221 25.5786 10.2775 25.3187 9.73405 24.7883C9.19055 24.258 8.92675 23.6226 8.94245 22.8821ZM13.5425 22.8742C13.5425 22.3281 13.364 21.8726 13.0069 21.5076C12.6498 21.1426 12.2061 20.9602 11.6757 20.9602C11.1401 20.9602 10.695 21.1413 10.3406 21.5037C9.98615 21.866 9.80895 22.3229 9.80895 22.8742C9.80895 23.4309 9.98485 23.8917 10.3366 24.2566C10.6885 24.6216 11.1348 24.8041 11.6757 24.8041C12.2061 24.8041 12.6498 24.6203 13.0069 24.2527C13.364 23.8851 13.5425 23.4256 13.5425 22.8742ZM15.9766 20.2827H19.3715V25.4815H18.5366V21.0311H16.7721C16.7353 22.2021 16.6578 23.1092 16.5397 23.7525C16.4215 24.3958 16.2522 24.8527 16.0316 25.1231C15.8111 25.3935 15.5091 25.534 15.1258 25.5445C14.9735 25.5445 14.8475 25.5235 14.7477 25.4815V24.7647C14.7792 24.7752 14.8527 24.7805 14.9683 24.7805C15.3148 24.7805 15.5616 24.4903 15.7087 23.9101C15.8557 23.3298 15.9424 22.4043 15.9686 21.1335L15.9766 20.2827ZM20.3639 22.8821C20.3534 22.1417 20.6186 21.5063 21.1595 20.9759C21.7004 20.4455 22.3436 20.1856 23.0893 20.1961C23.8297 20.1856 24.4743 20.4455 25.0231 20.9759C25.5719 21.5063 25.8384 22.1417 25.8226 22.8821C25.8384 23.6226 25.5719 24.258 25.0231 24.7883C24.4743 25.3187 23.8297 25.5786 23.0893 25.5681C22.3436 25.5786 21.699 25.3187 21.1556 24.7883C20.612 24.258 20.3483 23.6226 20.3639 22.8821ZM24.964 22.8742C24.964 22.3281 24.7855 21.8726 24.4284 21.5076C24.0714 21.1426 23.6276 20.9602 23.0972 20.9602C22.5616 20.9602 22.1165 21.1413 21.7621 21.5037C21.4076 21.866 21.2304 22.3229 21.2304 22.8742C21.2304 23.4309 21.4063 23.8917 21.7582 24.2566C22.1101 24.6216 22.5563 24.8041 23.0972 24.8041C23.6276 24.8041 24.0714 24.6203 24.4284 24.2527C24.7855 23.8851 24.964 23.4256 24.964 22.8742ZM26.823 25.4815V20.2827H27.658V22.3544H30.2731V20.2827H31.108V25.4815H30.2731V23.1027H27.658V25.4815H26.823ZM33.6445 25.4815V21.0311H31.8957V20.2827H36.236V21.0311H34.4795V25.4815H33.6445ZM37.0158 25.4815V20.2827H40.4343V21.0311H37.8506V22.3622H39.7962V23.0869H37.8506V24.7332H40.5289V25.4815H37.0158ZM41.4978 25.4815V20.2827H43.396C43.9211 20.2827 44.3465 20.4311 44.6721 20.7278C44.9978 21.0245 45.1605 21.4065 45.1605 21.8739C45.1605 22.3412 44.9963 22.7246 44.6681 23.0239C44.3399 23.3232 43.9159 23.4729 43.396 23.4729H42.3326V25.4815H41.4978ZM42.3326 22.7325H43.3803C43.6692 22.7325 43.895 22.6563 44.0578 22.504C44.2206 22.3517 44.302 22.1443 44.302 21.8818C44.302 21.6192 44.2206 21.4105 44.0578 21.2555C43.895 21.1006 43.6692 21.0232 43.3803 21.0232H42.3326V22.7325ZM45.7749 22.8821C45.7592 22.1417 46.0243 21.5063 46.5705 20.9759C47.1166 20.4455 47.7624 20.1856 48.5081 20.1961C48.9807 20.1961 49.4139 20.3038 49.8078 20.5191C50.2016 20.7344 50.5115 21.0258 50.7374 21.3934L50.1072 21.8581C49.7239 21.2595 49.1934 20.9602 48.516 20.9602C47.9803 20.9602 47.534 21.1426 47.177 21.5076C46.8199 21.8726 46.6413 22.3307 46.6413 22.8821C46.6413 23.4335 46.8199 23.8917 47.177 24.2566C47.534 24.6216 47.9803 24.8041 48.516 24.8041C49.1934 24.8041 49.7239 24.5048 50.1072 23.9061L50.7374 24.3709C50.5115 24.7437 50.2029 25.0365 49.8118 25.2491C49.4206 25.4618 48.986 25.5681 48.5081 25.5681C47.7624 25.5786 47.1166 25.3187 46.5705 24.7883C46.0243 24.258 45.7592 23.6226 45.7749 22.8821ZM51.7376 25.4815V20.2827H52.5726V22.2047H53.6203C54.1559 22.2047 54.5931 22.357 54.9318 22.6616C55.2705 22.9661 55.4398 23.36 55.4398 23.8431C55.4398 24.3262 55.2717 24.7201 54.9356 25.0246C54.5995 25.3292 54.1611 25.4815 53.6203 25.4815H51.7376ZM52.5726 24.7411H53.6124C53.9117 24.7411 54.1479 24.6597 54.3212 24.4969C54.4945 24.3341 54.5812 24.1162 54.5812 23.8431C54.5812 23.57 54.4945 23.3521 54.3212 23.1893C54.1479 23.0265 53.9117 22.9451 53.6124 22.9451H52.5726V24.7411ZM56.4402 25.4815V20.2827H57.2751V25.4815H56.4402ZM58.3464 22.7167L60.741 25.4815H59.7091L57.2987 22.7167L59.4806 20.2827H60.5047L58.3464 22.7167ZM65.6247 20.1961H65.916V25.4815H65.0812V21.8502L61.8595 25.5681H61.5681V20.2827H62.403V23.9061L65.6247 20.1961ZM71.2803 20.1961H71.5717V25.4815H70.7368V21.8502L67.5151 25.5681H67.2236V20.2827H68.0585V23.9061L71.2803 20.1961ZM68.1925 18.4711V18.3135H68.87V18.4947C68.87 18.71 68.9212 18.8793 69.0236 19.0027C69.1259 19.1262 69.2717 19.1879 69.4606 19.1879C69.6497 19.1879 69.7968 19.1275 69.9018 19.0067C70.0069 18.8859 70.0593 18.7152 70.0593 18.4947V18.3135H70.7447V18.4711C70.7447 18.8649 70.6264 19.1826 70.3902 19.4242C70.1539 19.6657 69.844 19.7865 69.4606 19.7865C69.0826 19.7865 68.7766 19.6657 68.5431 19.4242C68.3094 19.1826 68.1925 18.8649 68.1925 18.4711Z" fill="#2B2A29"/>
<path d="M4.26953 39.9435V29.7603H8.09593C9.16573 29.7603 10.0451 30.0639 10.7343 30.6706C11.4234 31.2775 11.7681 32.0696 11.7681 33.0467C11.7681 34.0137 11.4234 34.8056 10.7343 35.4228C10.0451 36.04 9.16573 36.3485 8.09593 36.3485H6.35253V39.9435H4.26953ZM6.35253 34.5279H8.09593C8.57943 34.5279 8.95743 34.3917 9.23003 34.119C9.50263 33.8465 9.63893 33.489 9.63893 33.0467C9.63893 32.6147 9.49733 32.2649 9.21453 31.9976C8.93173 31.7302 8.55883 31.5964 8.09593 31.5964H6.35253V34.5279ZM19.5288 29.7603H21.7504L18.279 37.3822C17.7955 38.3903 17.3326 39.0923 16.8903 39.4882C16.4481 39.8843 15.7898 40.0925 14.9154 40.1131C14.5349 40.1131 14.1491 40.0566 13.7584 39.9435V38.1691C14.0154 38.1999 14.2881 38.2154 14.5761 38.2154C15.1931 38.2154 15.6715 37.9994 16.0109 37.5674L12.2154 29.7603H14.5452L17.1372 35.2994L19.5288 29.7603ZM31.2084 39.9435H28.8478L26.6878 36.5645L24.5277 39.9435H22.1516L25.5306 34.7594L22.3523 29.7603H24.7284L26.6878 32.9696L28.6318 29.7603H30.9924L27.8603 34.7594L31.2084 39.9435ZM43.3202 29.7603H45.5419L42.0705 37.3822C41.587 38.3903 41.1241 39.0923 40.6818 39.4882C40.2396 39.8843 39.5812 40.0925 38.7069 40.1131C38.3264 40.1131 37.9406 40.0566 37.5498 39.9435V38.1691C37.8068 38.1999 38.0795 38.2154 38.3675 38.2154C38.9846 38.2154 39.463 37.9994 39.8023 37.5674L36.0068 29.7603H38.3367L40.9286 35.2994L43.3202 29.7603ZM55.8793 39.9435H53.3644L48.9981 34.6359V39.9435H46.9151V29.7603H48.9981V34.4816L52.8862 29.7603H55.3702L51.4667 34.5587L55.8793 39.9435ZM57.2525 39.9435V29.7603H61.0789C62.1487 29.7603 63.0281 30.0639 63.7174 30.6706C64.4064 31.2775 64.7511 32.0696 64.7511 33.0467C64.7511 34.0137 64.4064 34.8056 63.7174 35.4228C63.0281 36.04 62.1487 36.3485 61.0789 36.3485H59.3355V39.9435H57.2525ZM59.3355 34.5279H61.0789C61.5624 34.5279 61.9404 34.3917 62.213 34.119C62.4856 33.8465 62.6219 33.489 62.6219 33.0467C62.6219 32.6147 62.4803 32.2649 62.1975 31.9976C61.9147 31.7302 61.5418 31.5964 61.0789 31.5964H59.3355V34.5279ZM71.7558 39.9435L71.1849 38.6166H67.0191L66.4483 39.9435H64.211L68.7626 29.5752H69.4569L73.9929 39.9435H71.7558ZM70.4598 36.9039L69.102 33.4633L67.7442 36.9039H70.4598ZM75.3815 39.9435V29.7603H77.4645V39.9435H75.3815ZM79.7942 39.9435V29.7603H81.8772V33.6639H86.3823V29.7603H88.4653V39.9435H86.3823V35.5462H81.8772V39.9435H79.7942ZM98.8336 29.5752H99.5279V39.9435H97.4449V33.6331L91.474 40.1286H90.7951V29.7603H92.878V36.0091L98.8336 29.5752Z" fill="#2B2A29"/>
<path d="M112.888 33.1406C112.322 40.1863 109.185 46.5206 104.4 51.2327C99.102 56.4493 91.7855 59.676 83.7066 59.676C75.6278 59.676 68.3113 56.4493 63.0137 51.2327C60.92 49.1711 59.1422 46.7987 57.7568 44.1925H59.6333C60.8707 46.3496 62.3983 48.3235 64.1644 50.0625C69.1636 54.9853 76.0728 58.0302 83.7066 58.0302C91.3405 58.0302 98.2497 54.9853 103.249 50.0625C107.728 45.6517 110.675 39.7306 111.236 33.1406H112.888Z" fill="#FFE817"/>
<path fill-rule="evenodd" clip-rule="evenodd" d="M78.3796 25.958C79.1513 25.958 79.7768 26.5869 79.7768 27.3627C79.7768 28.1385 79.1513 28.7674 78.3796 28.7674C77.6079 28.7674 76.9824 28.1385 76.9824 27.3627C76.9824 26.5869 77.6079 25.958 78.3796 25.958Z" fill="#FFE817"/>
<path fill-rule="evenodd" clip-rule="evenodd" d="M74.6296 25.873C75.4012 25.873 76.0268 26.5019 76.0268 27.2777C76.0268 28.0534 75.4012 28.6824 74.6296 28.6824C73.8579 28.6824 73.2324 28.0534 73.2324 27.2777C73.2324 26.5019 73.8579 25.873 74.6296 25.873Z" fill="#003882"/>
<path fill-rule="evenodd" clip-rule="evenodd" d="M111.34 30.6912C111.369 31.1156 111.725 31.4534 112.157 31.4534C112.588 31.4534 112.944 31.1156 112.974 30.6912H112.979C112.939 22.7858 109.668 15.6314 104.399 10.4433C99.1016 5.2267 91.7851 2 83.7062 2C75.6274 2 68.3109 5.2267 63.0133 10.4433C61.6008 11.8341 60.3321 13.3663 59.2305 15.0162H61.2322C62.1148 13.8038 63.0956 12.6657 64.164 11.6135C69.1632 6.6907 76.0724 3.6459 83.7062 3.6459C91.3401 3.6459 98.2493 6.6907 103.248 11.6135C108.211 16.5004 111.293 23.2409 111.333 30.6912H111.34Z" fill="#003882"/>
<path fill-rule="evenodd" clip-rule="evenodd" d="M112.063 32.1338H112.063C111.609 32.1338 111.238 32.5049 111.238 32.958V33.0969C111.238 33.5504 111.609 33.9211 112.063 33.9211H112.063C112.516 33.9211 112.887 33.5504 112.887 33.0969V32.958C112.887 32.5049 112.516 32.1338 112.063 32.1338Z" fill="#FFE817"/>
</svg>
