<svg xmlns="http://www.w3.org/2000/svg" version="1.1" xmlns:xlink="http://www.w3.org/1999/xlink" xmlns:svgjs="http://svgjs.dev/svgjs" width="1000" height="1000"><g clip-path="url(#SvgjsClipPath1233)"><rect width="1000" height="1000" fill="#ffffff"></rect><g transform="matrix(0.68359375,0,0,0.68359375,150,150)"><svg xmlns="http://www.w3.org/2000/svg" version="1.1" xmlns:xlink="http://www.w3.org/1999/xlink" xmlns:svgjs="http://svgjs.dev/svgjs" width="1024" height="1024"><svg width="1024" height="1024" viewBox="0 0 1024 1024" fill="none" xmlns="http://www.w3.org/2000/svg">
<path fill-rule="evenodd" clip-rule="evenodd" d="M805.38 299C926.127 299 1024 394.357 1024 511.987C1024 629.618 926.127 724.975 805.38 724.975C684.632 724.975 586.761 629.618 586.761 511.987C586.761 394.357 684.632 299 805.38 299Z" fill="#FFE817"></path>
<path fill-rule="evenodd" clip-rule="evenodd" d="M218.619 299C339.351 299 437.238 394.357 437.238 511.988C437.238 629.603 339.351 724.975 218.619 724.975C97.8713 724.975 0 629.603 0 511.988C0 394.357 97.8713 299 218.619 299Z" fill="#003882"></path>
</svg></svg></g></g><defs><clipPath id="SvgjsClipPath1233"><rect width="1000" height="1000" x="0" y="0" rx="500" ry="500"></rect></clipPath></defs></svg>